<?xml version="1.0" encoding="UTF-8" standalone="no"?>
<!-- Created with Inkscape (http://www.inkscape.org/) -->

<svg
   xmlns:dc="http://purl.org/dc/elements/1.1/"
   xmlns:cc="http://creativecommons.org/ns#"
   xmlns:rdf="http://www.w3.org/1999/02/22-rdf-syntax-ns#"
   xmlns:svg="http://www.w3.org/2000/svg"
   xmlns="http://www.w3.org/2000/svg"
   xmlns:xlink="http://www.w3.org/1999/xlink"
   xmlns:sodipodi="http://sodipodi.sourceforge.net/DTD/sodipodi-0.dtd"
   xmlns:inkscape="http://www.inkscape.org/namespaces/inkscape"
   width="100"
   height="100"
   id="svg2"
   version="1.1"
   inkscape:version="0.48.5 r10040"
   sodipodi:docname="logo.svg">
  <defs
     id="defs4" />
  <sodipodi:namedview
     id="base"
     pagecolor="#ffffff"
     bordercolor="#666666"
     borderopacity="1.0"
     inkscape:pageopacity="0.0"
     inkscape:pageshadow="2"
     inkscape:zoom="1.4142136"
     inkscape:cx="266.46563"
     inkscape:cy="125.91255"
     inkscape:document-units="px"
     inkscape:current-layer="layer3"
     showgrid="false"
     inkscape:window-width="1920"
     inkscape:window-height="1036"
     inkscape:window-x="0"
     inkscape:window-y="44"
     inkscape:window-maximized="0"
     inkscape:object-nodes="true"
     inkscape:snap-object-midpoints="true"
     inkscape:object-paths="true"
     inkscape:snap-midpoints="false"
     inkscape:snap-center="true"
     inkscape:snap-intersection-paths="false"
     inkscape:snap-smooth-nodes="true"
     inkscape:snap-nodes="true"
     fit-margin-top="0"
     fit-margin-left="0"
     fit-margin-right="0"
     fit-margin-bottom="0" />
  <metadata
     id="metadata7">
    <rdf:RDF>
      <cc:Work
         rdf:about="">
        <dc:format>image/svg+xml</dc:format>
        <dc:type
           rdf:resource="http://purl.org/dc/dcmitype/StillImage" />
        <dc:title></dc:title>
      </cc:Work>
    </rdf:RDF>
  </metadata>
  <g
     inkscape:label="linien"
     inkscape:groupmode="layer"
     id="layer1"
     style="display:none"
     transform="translate(-155.5625,-687.6875)">
    <g
       id="g3881">
      <rect
         inkscape:transform-center-x="-47.603455"
         transform="matrix(0,1,-1,0,0,0)"
         style="fill:#000000;fill-opacity:0.11330052;stroke:none"
         id="rect3832"
         width="5"
         height="95.206879"
         x="759.5"
         y="-253.16594"
         inkscape:transform-center-y="1.5848633e-05" />
      <rect
         inkscape:transform-center-x="-47.603455"
         transform="matrix(0,1,-1,0,0,0)"
         style="fill:#000000;fill-opacity:0.11330052;stroke:none"
         id="rect3879"
         width="5"
         height="95.206879"
         x="772.53125"
         y="-253.16594"
         inkscape:transform-center-y="1.5848633e-05" />
    </g>
    <rect
       style="fill:#000000;fill-opacity:0.11330052;stroke:none"
       id="rect3806"
       width="5"
       height="95.206879"
       x="203.06252"
       y="735.93188"
       inkscape:transform-center-y="-47.603454" />
    <rect
       inkscape:transform-center-y="-44.707833"
       y="614.77582"
       x="476.01038"
       height="95.206879"
       width="5"
       id="rect3830"
       style="fill:#000000;fill-opacity:0.11330052;stroke:none"
       transform="matrix(0.93917222,0.34344657,-0.34344657,0.93917222,0,0)"
       inkscape:transform-center-x="-16.349253" />
    <rect
       inkscape:transform-center-x="-47.603455"
       transform="matrix(0,1,-1,0,0,0)"
       style="fill:#000000;fill-opacity:0.11330052;stroke:none"
       id="rect3834"
       width="2"
       height="95.206879"
       x="767.51562"
       y="-253.16594" />
    <rect
       inkscape:transform-center-y="-43.10325"
       y="744.60498"
       x="-169.12415"
       height="95.206879"
       width="5"
       id="rect3836"
       style="fill:#000000;fill-opacity:0.11330052;stroke:none"
       transform="matrix(0.90546444,-0.42442213,0.42442213,0.90546444,0,0)"
       inkscape:transform-center-x="20.203969" />
    <rect
       inkscape:transform-center-y="-45.99469"
       y="654.85492"
       x="-415.36185"
       height="95.206879"
       width="5"
       id="rect3842"
       style="fill:#000000;fill-opacity:0.11330052;stroke:none"
       transform="matrix(-0.96620514,-0.25777439,-0.25777439,0.96620514,0,0)"
       inkscape:transform-center-x="-12.270948" />
    <rect
       inkscape:transform-center-x="20.203969"
       transform="matrix(-0.90546444,-0.42442213,-0.42442213,0.90546444,0,0)"
       style="fill:#000000;fill-opacity:0.11330052;stroke:none"
       id="rect3844"
       width="5"
       height="95.206879"
       x="-541.38324"
       y="570.11444"
       inkscape:transform-center-y="-43.10325" />
    <rect
       inkscape:transform-center-x="-9.0583473"
       transform="matrix(-0.9817283,-0.19028806,-0.19028806,0.9817283,0,0)"
       style="fill:#000000;fill-opacity:0.11330052;stroke:none"
       id="rect3852"
       width="5"
       height="95.206879"
       x="-362.46231"
       y="681.62952"
       inkscape:transform-center-y="-46.733617" />
    <rect
       inkscape:transform-center-y="-47.247204"
       y="704.61292"
       x="-308.00934"
       height="95.206879"
       width="5"
       id="rect3854"
       style="fill:#000000;fill-opacity:0.11330052;stroke:none"
       transform="matrix(-0.99251737,-0.12210355,-0.12210355,0.99251737,0,0)"
       inkscape:transform-center-x="-5.8125221" />
    <rect
       inkscape:transform-center-y="-43.097636"
       y="744.55902"
       x="165.85583"
       height="95.206879"
       width="2"
       id="rect3861"
       style="fill:#000000;fill-opacity:0.11330052;stroke:none"
       transform="matrix(-0.90534731,0.42467193,0.42467193,0.90534731,0,0)"
       inkscape:transform-center-x="20.215836" />
    <rect
       inkscape:transform-center-y="-46.733617"
       y="759.86169"
       x="41.150764"
       height="95.206879"
       width="5"
       id="rect3863"
       style="fill:#000000;fill-opacity:0.11330052;stroke:none"
       transform="matrix(0.9817283,-0.19028806,0.19028806,0.9817283,0,0)"
       inkscape:transform-center-x="-9.0583473" />
    <rect
       inkscape:transform-center-x="-5.8125221"
       transform="matrix(0.99251737,-0.12210355,0.12210355,0.99251737,0,0)"
       style="fill:#000000;fill-opacity:0.11330052;stroke:none"
       id="rect3865"
       width="5"
       height="95.206879"
       x="100.03939"
       y="754.81274"
       inkscape:transform-center-y="-47.247204" />
    <rect
       inkscape:transform-center-x="12.270954"
       transform="matrix(0.96620514,-0.25777439,0.25777439,0.96620514,0,0)"
       style="fill:#000000;fill-opacity:0.11330052;stroke:none"
       id="rect3875"
       width="5"
       height="95.206879"
       x="-18.130732"
       y="760.8324"
       inkscape:transform-center-y="-45.994714" />
    <rect
       inkscape:transform-center-y="-44.449924"
       y="754.44623"
       x="-108.03281"
       height="95.206879"
       width="5"
       id="rect3877"
       style="fill:#000000;fill-opacity:0.11330052;stroke:none"
       transform="matrix(0.9337539,-0.3579157,0.3579157,0.9337539,0,0)"
       inkscape:transform-center-x="17.038017" />
    <path
       style="fill:#800080;fill-opacity:0.32512315;stroke:none"
       d="m 179.45882,695.03413 c -17.76337,4.60804 -15.43063,4.81041 -19.75094,22.68788 27.33555,9.84341 27.62302,33.99805 29.41712,39.77799 l 5.09375,0 c -0.51933,-8.24328 8.62448,-21.45378 11.34375,-25.8125 0.53982,-9.57292 0.93682,-5.14583 0,-14.71875 -5.57388,0 -10.26051,15.03256 -16.3125,7.03125 -6.05199,-8.00131 -5.46197,-15.68638 -9.79118,-28.96587 z"
       id="path3955"
       inkscape:connector-curvature="0"
       sodipodi:nodetypes="cccccczc" />
    <use
       x="0"
       y="0"
       xlink:href="#path3955"
       id="use3971"
       transform="matrix(-1,0,0,1,411.125,0)"
       width="744.09448"
       height="1052.3622" />
  </g>
  <g
     inkscape:groupmode="layer"
     id="layer3"
     inkscape:label="zeichnung"
     transform="translate(-155.5625,-687.6875)">
    <path
       inkscape:connector-curvature="0"
       id="path4022"
       d="m 205.5625,687.6875 c -27.61424,0 -50,22.38576 -50,50 0,27.61424 22.38576,50 50,50 27.61424,0 50,-22.38576 50,-50 0,-27.61424 -22.38576,-50 -50,-50 z"
       style="fill:#ffffff;fill-opacity:1;stroke:none" />
    <path
       style="fill:#a42e2b;fill-opacity:1;stroke:none"
       d="m 162.41285,752.12628 10.05328,21.40497 19.17915,0 3.07905,0 21.66465,0 9.27424,0 6.34359,0 6.64036,0 10.12748,-21.40497 -23.59369,0 -6.1581,0 -26.93242,0 -6.04681,0 z m 24.22434,2.37421 5.75003,0 2.04033,16.65655 -3.41292,0 -2.52259,-9.53393 -8.7178,0 0.92743,2.37421 2.26291,0 0.96452,3.59841 -7.71617,0 -4.45164,-9.53393 15.76622,0 z m 32.0889,0 5.82422,0 -0.96452,3.56131 6.14748,0 -3.50579,13.14061 -9.54173,-0.0453 0.40807,-3.56132 -17.10172,0 -0.44516,-3.5984 6.26939,0 0,-2.37421 -6.56617,0 -0.44516,-3.56131 19.47592,0 z m -51.56483,3.56131 2.59679,0 4.48874,9.53393 -2.59679,0 z m 68.77783,0 c 0.56357,0 1.09334,0.15503 1.59517,0.33388 l 0.11123,-0.33388 5.71294,0 -6.1952,13.09524 -4.30325,0 1.44679,-3.89518 c -1.82528,-0.66573 -3.11615,-2.40283 -3.11615,-4.45164 0,-2.62248 2.11569,-4.74842 4.74841,-4.74842 z m 0,2.37421 c -1.31124,0 -2.37421,1.06297 -2.37421,2.37421 0,1.31124 1.06297,2.37421 2.37421,2.37421 1.31124,0 2.37421,-1.06297 2.37421,-2.37421 0,-1.31124 -1.06297,-2.37421 -2.37421,-2.37421 z"
       id="path3897"
       inkscape:connector-curvature="0"
       sodipodi:nodetypes="cccccccccccccccccccccccccccccccccccccccccccccccsccccccsssssss"
       inkscape:transform-center-y="-10.702485" />
    <path
       style="fill:none;stroke:#0a8080;stroke-width:6;stroke-linecap:round;stroke-linejoin:bevel;stroke-miterlimit:4;stroke-opacity:1;stroke-dasharray:none"
       d="m 170.40585,708.73295 c 14.45004,12.31404 14.03154,19.98347 18.37087,39.19773 1.81196,-19.02966 16.78578,-13.19947 16.78578,-26.22756"
       id="path3975"
       inkscape:connector-curvature="0"
       sodipodi:nodetypes="ccc" />
    <use
       x="0"
       y="0"
       xlink:href="#path3975"
       id="use3979"
       transform="matrix(-1,0,0,1,411.125,5e-6)"
       width="744.09448"
       height="1052.3622"
       style="stroke-width:5;stroke-linecap:square;stroke-linejoin:bevel;stroke-miterlimit:4;stroke-dasharray:none" />
    <path
       transform="matrix(1.0665901,0,0,1.0665901,163.84675,665.34576)"
       d="m 10.307816,40.626617 a 4.2190528,4.2190528 0 1 1 -8.438106,0 4.2190528,4.2190528 0 1 1 8.438106,0 z"
       sodipodi:ry="4.2190528"
       sodipodi:rx="4.2190528"
       sodipodi:cy="40.626617"
       sodipodi:cx="6.0887628"
       id="path4030"
       style="fill:#ffffff;fill-opacity:1;stroke:none"
       sodipodi:type="arc" />
    <path
       sodipodi:type="arc"
       style="fill:#ffffff;fill-opacity:1;stroke:none"
       id="path4038"
       sodipodi:cx="6.0887628"
       sodipodi:cy="40.626617"
       sodipodi:rx="4.2190528"
       sodipodi:ry="4.2190528"
       d="m 10.307816,40.626617 a 4.2190528,4.2190528 0 1 1 -8.438106,0 4.2190528,4.2190528 0 1 1 8.438106,0 z"
       transform="matrix(1.0665901,0,0,1.0665901,199.06666,678.60459)" />
    <path
       sodipodi:type="arc"
       style="fill:#ffffff;fill-opacity:1;stroke:none"
       id="path4046"
       sodipodi:cx="6.0887628"
       sodipodi:cy="40.626617"
       sodipodi:rx="4.2190528"
       sodipodi:ry="4.2190528"
       d="m 10.307816,40.626617 a 4.2190528,4.2190528 0 1 1 -8.438106,0 4.2190528,4.2190528 0 1 1 8.438106,0 z"
       transform="matrix(1.0665901,0,0,1.0665901,234.00718,665.58719)" />
    <path
       sodipodi:type="arc"
       style="fill:#0a8080;fill-opacity:1;stroke:none"
       id="path4028"
       sodipodi:cx="6.0887628"
       sodipodi:cy="40.626617"
       sodipodi:rx="4.2190528"
       sodipodi:ry="4.2190528"
       d="m 10.307816,40.626617 a 4.2190528,4.2190528 0 1 1 -8.438106,0 4.2190528,4.2190528 0 1 1 8.438106,0 z"
       transform="matrix(0.59255006,0,0,0.59255006,166.73307,684.6044)" />
    <path
       transform="matrix(0.59255006,0,0,0.59255006,201.95298,697.86323)"
       d="m 10.307816,40.626617 a 4.2190528,4.2190528 0 1 1 -8.438106,0 4.2190528,4.2190528 0 1 1 8.438106,0 z"
       sodipodi:ry="4.2190528"
       sodipodi:rx="4.2190528"
       sodipodi:cy="40.626617"
       sodipodi:cx="6.0887628"
       id="path4040"
       style="fill:#0a8080;fill-opacity:1;stroke:none"
       sodipodi:type="arc" />
    <path
       transform="matrix(0.59255006,0,0,0.59255006,236.8935,684.84583)"
       d="m 10.307816,40.626617 a 4.2190528,4.2190528 0 1 1 -8.438106,0 4.2190528,4.2190528 0 1 1 8.438106,0 z"
       sodipodi:ry="4.2190528"
       sodipodi:rx="4.2190528"
       sodipodi:cy="40.626617"
       sodipodi:cx="6.0887628"
       id="path4048"
       style="fill:#0a8080;fill-opacity:1;stroke:none"
       sodipodi:type="arc" />
    <path
       style="fill:#0a8080;stroke:none;stroke-width:1px;stroke-linecap:butt;stroke-linejoin:miter;stroke-opacity:1;fill-opacity:1"
       d="M 30.46875 64.4375 L 31.0625 66.8125 L 36.8125 66.8125 L 36.53125 64.4375 L 30.46875 64.4375 z M 63.46875 64.4375 L 63.15625 66.8125 L 69 66.8125 L 69.625 64.4375 L 63.46875 64.4375 z M 87.78125 70.375 L 81.59375 83.46875 L 77.3125 83.46875 L 76.71875 85.8125 L 83.09375 85.84375 L 90.40625 70.375 L 87.78125 70.375 z M 35.4375 83.46875 L 36.09375 85.84375 L 39.15625 85.84375 L 38.875 83.46875 L 35.4375 83.46875 z M 61.125 83.46875 L 60.8125 85.84375 L 70.09375 85.84375 L 70.65625 83.5 L 61.125 83.46875 z "
       transform="translate(155.5625,687.6875)"
       id="path4058" />
    <path
       sodipodi:type="arc"
       style="fill:#a42e2b;fill-opacity:1;stroke:none"
       id="path4092"
       sodipodi:cx="6.0887628"
       sodipodi:cy="40.626617"
       sodipodi:rx="4.2190528"
       sodipodi:ry="4.2190528"
       d="m 10.307816,40.626617 a 4.2190528,4.2190528 0 1 1 -8.438106,0 4.2190528,4.2190528 0 1 1 8.438106,0 z"
       transform="matrix(0.59255006,0,0,0.59255006,232.33119,738.61113)" />
    <path
       style="fill:none;stroke:none;stroke-width:1px;stroke-linecap:butt;stroke-linejoin:miter;stroke-opacity:1"
       d="m 11.59876,70.3743 2.59679,0 4.48874,9.53393 -2.59679,0 z"
       id="path4094"
       inkscape:connector-curvature="0"
       transform="translate(155.5625,687.6875)" />
  </g>
  <g
     inkscape:groupmode="layer"
     id="layer2"
     inkscape:label="umbebung"
     transform="translate(-155.5625,-687.6875)" />
</svg>
